<svg width="30" height="23" viewBox="0 0 30 23" fill="none" xmlns="http://www.w3.org/2000/svg">
<path id="Vector" d="M29.9383 16.7983L26.2496 2.24951C26.1525 1.87076 25.9471 1.52854 25.6584 1.26478C25.3698 1.00102 25.0105 0.827162 24.6246 0.764512L20.1171 0.024512C19.6202 -0.0554103 19.1113 0.0523406 18.6894 0.326809C18.2676 0.601277 17.9629 1.02284 17.8346 1.50951L17.8083 1.61576C17.7913 1.68327 17.7886 1.75357 17.8004 1.82219C17.8121 1.8908 17.838 1.9562 17.8765 2.01421C17.915 2.07222 17.9652 2.12156 18.0238 2.15906C18.0824 2.19657 18.1483 2.22141 18.2171 2.23201C19.2514 2.38381 20.2718 2.61874 21.2683 2.93451C21.5175 3.00968 21.7287 3.1768 21.8591 3.40197C21.9896 3.62713 22.0295 3.89349 21.9708 4.14701C21.9371 4.27913 21.8767 4.40295 21.7933 4.51086C21.71 4.61877 21.6055 4.7085 21.4862 4.77453C21.3669 4.84056 21.2353 4.8815 21.0996 4.89482C20.9639 4.90815 20.8269 4.89358 20.6971 4.85201C16.9994 3.71799 13.0473 3.71364 9.34707 4.83951C9.09666 4.92371 8.82344 4.90822 8.58415 4.79625C8.34486 4.68429 8.1579 4.48446 8.06207 4.23826C8.01653 4.11193 7.9969 3.97772 8.00435 3.84363C8.01181 3.70955 8.04619 3.57834 8.10545 3.45783C8.16471 3.33732 8.24764 3.22999 8.34929 3.14222C8.45093 3.05446 8.56921 2.98807 8.69707 2.94701C9.70608 2.62562 10.7395 2.38651 11.7871 2.23201C11.8559 2.22141 11.9217 2.19657 11.9803 2.15906C12.039 2.12156 12.0892 2.07222 12.1276 2.01421C12.1661 1.9562 12.192 1.8908 12.2038 1.82219C12.2155 1.75357 12.2128 1.68327 12.1958 1.61576L12.1696 1.50951C12.0413 1.02243 11.7361 0.600593 11.3137 0.326275C10.8912 0.0519567 10.3817 -0.0551782 9.88457 0.0257618L5.37457 0.765762C4.98879 0.82832 4.62961 1.00199 4.341 1.26551C4.05238 1.52904 3.84686 1.87099 3.74957 2.24951L0.0608243 16.7983C-0.0548353 17.2556 -0.00449824 17.7391 0.202878 18.1628C0.410255 18.5864 0.761221 18.9228 1.19332 19.112L9.56833 22.8258C9.82015 22.9377 10.0922 22.997 10.3678 22.9999C10.6434 23.0029 10.9166 22.9495 11.1708 22.8429C11.425 22.7364 11.6546 22.579 11.8458 22.3804C12.0369 22.1819 12.1853 21.9463 12.2821 21.6883L12.7183 20.507C12.7443 20.4363 12.754 20.3605 12.7466 20.2855C12.7392 20.2105 12.7149 20.1381 12.6756 20.0738C12.6363 20.0095 12.583 19.9549 12.5196 19.9141C12.4562 19.8733 12.3844 19.8474 12.3096 19.8383C11.0952 19.6912 9.89719 19.4318 8.73082 19.0633C8.48272 18.9879 8.27241 18.8212 8.14228 18.5969C8.01216 18.3726 7.97188 18.1073 8.02957 17.8545C8.06301 17.722 8.12325 17.5978 8.20656 17.4895C8.28987 17.3812 8.39449 17.2911 8.51396 17.2248C8.63344 17.1585 8.76523 17.1174 8.90121 17.104C9.03719 17.0907 9.17447 17.1053 9.30457 17.147C13.0162 18.2837 16.983 18.2837 20.6946 17.147C20.8245 17.1055 20.9616 17.0909 21.0974 17.1043C21.2331 17.1178 21.3647 17.1588 21.484 17.2249C21.6033 17.2911 21.7079 17.381 21.7911 17.489C21.8744 17.5971 21.9347 17.721 21.9683 17.8533C22.0267 18.1063 21.9867 18.372 21.8565 18.5967C21.7263 18.8213 21.5156 18.9881 21.2671 19.0633C20.1012 19.4319 18.9035 19.6913 17.6896 19.8383C17.6148 19.8474 17.543 19.8733 17.4796 19.9141C17.4162 19.9549 17.3628 20.0095 17.3235 20.0738C17.2842 20.1381 17.26 20.2105 17.2526 20.2855C17.2452 20.3605 17.2548 20.4363 17.2808 20.507L17.7171 21.6883C17.814 21.9462 17.9625 22.1816 18.1537 22.3801C18.3448 22.5786 18.5745 22.7359 18.8286 22.8424C19.0827 22.9489 19.3559 23.0024 19.6314 22.9995C19.9069 22.9967 20.179 22.9375 20.4308 22.8258L28.8058 19.112C29.2379 18.9228 29.5889 18.5864 29.7963 18.1628C30.0036 17.7391 30.054 17.2556 29.9383 16.7983ZM10.4996 13.9995C10.2029 13.9995 9.91289 13.9115 9.66622 13.7467C9.41955 13.5819 9.22729 13.3476 9.11376 13.0735C9.00022 12.7994 8.97052 12.4978 9.0284 12.2069C9.08627 11.9159 9.22914 11.6486 9.43891 11.4389C9.64869 11.2291 9.91597 11.0862 10.2069 11.0283C10.4979 10.9705 10.7995 11.0002 11.0736 11.1137C11.3477 11.2272 11.582 11.4195 11.7468 11.6662C11.9116 11.9128 11.9996 12.2028 11.9996 12.4995C11.9996 12.8973 11.8415 13.2789 11.5602 13.5602C11.2789 13.8415 10.8974 13.9995 10.4996 13.9995ZM19.4996 13.9995C19.2029 13.9995 18.9129 13.9115 18.6662 13.7467C18.4195 13.5819 18.2273 13.3476 18.1138 13.0735C18.0002 12.7994 17.9705 12.4978 18.0284 12.2069C18.0863 11.9159 18.2291 11.6486 18.4389 11.4389C18.6487 11.2291 18.916 11.0862 19.2069 11.0283C19.4979 10.9705 19.7995 11.0002 20.0736 11.1137C20.3477 11.2272 20.582 11.4195 20.7468 11.6662C20.9116 11.9128 20.9996 12.2028 20.9996 12.4995C20.9996 12.8973 20.8415 13.2789 20.5602 13.5602C20.2789 13.8415 19.8974 13.9995 19.4996 13.9995Z" fill="#050142"/>
</svg>
