<svg width="24" height="24" viewBox="0 0 24 24" fill="none" xmlns="http://www.w3.org/2000/svg">
<path d="M12.0001 2.1875H12C10.0593 2.1875 8.16213 2.76299 6.54847 3.8412C4.93481 4.91942 3.67712 6.45192 2.93444 8.24492C2.19175 10.0379 1.99743 12.0109 2.37605 13.9143C2.75467 15.8178 3.68922 17.5662 5.06152 18.9385C6.43382 20.3108 8.18224 21.2453 10.0857 21.624C11.9891 22.0026 13.9621 21.8083 15.7551 21.0656C17.5481 20.3229 19.0806 19.0652 20.1588 17.4515C21.237 15.8379 21.8125 13.9407 21.8125 12V11.9999C21.8075 9.39901 20.7721 6.90609 18.933 5.06699C17.0939 3.22789 14.601 2.19249 12.0001 2.1875ZM11.3125 7.5C11.3125 7.31766 11.3849 7.1428 11.5139 7.01386C11.6428 6.88493 11.8177 6.8125 12 6.8125C12.1823 6.8125 12.3572 6.88493 12.4861 7.01386C12.6151 7.1428 12.6875 7.31766 12.6875 7.5V12.75C12.6875 12.9323 12.6151 13.1072 12.4861 13.2361C12.3572 13.3651 12.1823 13.4375 12 13.4375C11.8177 13.4375 11.6428 13.3651 11.5139 13.2361C11.3849 13.1072 11.3125 12.9323 11.3125 12.75V7.5ZM12 17.1875C11.7899 17.1875 11.5844 17.1252 11.4097 17.0084C11.235 16.8917 11.0988 16.7257 11.0184 16.5316C10.938 16.3375 10.9169 16.1238 10.9579 15.9177C10.9989 15.7116 11.1001 15.5223 11.2487 15.3737C11.3973 15.2251 11.5866 15.1239 11.7927 15.0829C11.9988 15.0419 12.2125 15.063 12.4066 15.1434C12.6007 15.2238 12.7667 15.36 12.8834 15.5347C13.0002 15.7094 13.0625 15.9149 13.0625 16.125C13.0625 16.4068 12.9506 16.677 12.7513 16.8763C12.552 17.0756 12.2818 17.1875 12 17.1875Z" fill="#FF3939" stroke="#FF3939" stroke-width="0.125"/>
</svg>
