<svg width="189" height="40" viewBox="0 0 189 40" fill="none" xmlns="http://www.w3.org/2000/svg">
<g clip-path="url(#clip0_548_1328)">
<path d="M36.9775 25.3423H8.03711V28.4137H36.9775V25.3423Z" fill="#050142"/>
<path d="M28.9404 33.5H0V36.5714H28.9404V33.5Z" fill="#050142"/>
<path d="M28.9422 0H0V3.07144H28.9422V0Z" fill="#050142"/>
<path d="M44.8984 16.4282H15.958V19.4997H44.8984V16.4282Z" fill="#050142"/>
<path d="M36.9793 8.49121H8.03711V11.5627H36.9793V8.49121Z" fill="#050142"/>
</g>
<g clip-path="url(#clip1_548_1328)">
<path d="M65.6938 6.14859V15.8063H78.8445V18.7254H65.6938V31.8762H62.1216V3.22949H81.2392V6.14859H65.6938Z" fill="#050142"/>
<path d="M84.7715 3.22949H88.0567V31.8861H84.7715V3.22949Z" fill="#050142"/>
<path d="M93.6974 11.2642H96.9826V26.0378C96.9826 26.6513 97.0222 27.2549 97.23 27.6606C98.0018 29.036 99.4168 29.8474 100.881 29.8474C101.811 29.8474 102.504 29.2339 107.135 26.6018V11.2642H110.42V31.8858H107.412L107.125 29.412C105.582 31.2427 103.068 32.4994 100.871 32.4994C97.0123 32.4994 93.6875 29.3725 93.6875 25.6419V11.2741L93.6974 11.2642Z" fill="#050142"/>
<path d="M119.722 21.4566L114.28 11.2744H117.852L122.522 20.2395H124.67L129.34 11.2744H132.794L127.351 21.4566L133.11 31.8862H129.538L124.59 22.7133H122.443L117.456 31.8862H114.002L119.722 21.4566Z" fill="#050142"/>
<path d="M136.158 6.47513V5.2976C136.158 4.0409 137.049 3.22949 138.345 3.22949C139.641 3.22949 140.621 4.0409 140.621 5.2976V6.47513C140.621 7.73183 139.691 8.54324 138.345 8.54324C136.999 8.54324 136.158 7.73183 136.158 6.47513ZM136.722 11.2644H140.007V31.8861H136.722V11.2644Z" fill="#050142"/>
<path d="M150.773 26.0776C150.773 26.6911 150.773 27.2552 151.1 27.74C152.07 28.9967 153.376 29.8477 154.959 29.8477C155.77 29.8477 156.503 29.4024 159.907 27.3343L161.529 28.591C160.154 31.0648 157.67 32.4898 154.959 32.4898C150.862 32.4898 147.488 29.2441 147.488 25.2662V13.9065H143.025V11.2645H147.488V5.91113H150.773V11.2645H160.025V13.9065H150.773V26.0776Z" fill="#050142"/>
<path d="M168.347 37.3579C169.238 37.3579 169.643 37.1996 170.128 36.8731C171.227 36.1012 171.632 34.7654 172.483 31.8858H168.06L162.093 11.2642H165.418L170.494 29.323H173.176L177.965 11.2642H181.171L175.284 32.816C174.591 35.3294 173.908 37.2392 172.731 38.298C171.672 39.3172 170.138 39.9999 168.307 39.9999L168.347 37.3579Z" fill="#050142"/>
<path d="M184.783 11.9473H186.188C186.416 11.9473 186.614 11.977 186.762 12.0462C187.049 12.1749 187.188 12.4222 187.188 12.7785C187.188 12.9665 187.148 13.1149 187.069 13.2336C186.99 13.3524 186.891 13.4414 186.752 13.5206C186.871 13.5701 186.96 13.6295 187.02 13.7185C187.079 13.7977 187.118 13.9263 187.118 14.1044V14.52C187.138 14.6388 187.148 14.7278 187.158 14.7872C187.188 14.8862 187.227 14.9455 187.297 14.9752V15.0445H186.782C186.782 15.0445 186.752 14.9851 186.752 14.9455C186.752 14.9059 186.733 14.8268 186.733 14.6981L186.703 14.1836C186.703 13.9857 186.624 13.8472 186.485 13.7779C186.406 13.7383 186.287 13.7185 186.119 13.7185H185.199V15.0445H184.783V11.9671V11.9473ZM186.139 13.3623C186.327 13.3623 186.475 13.3227 186.594 13.2435C186.713 13.1644 186.762 13.0258 186.762 12.818C186.762 12.6004 186.683 12.4519 186.535 12.3728C186.456 12.3332 186.337 12.3134 186.198 12.3134H185.209V13.3623H186.149H186.139Z" fill="#050142"/>
<path d="M185.931 16.6573C184.308 16.6573 182.982 15.3413 182.982 13.7085C182.982 12.0758 184.298 10.7598 185.931 10.7598C187.564 10.7598 188.88 12.0758 188.88 13.7085C188.88 15.3413 187.564 16.6573 185.931 16.6573ZM185.931 11.0863C184.487 11.0863 183.309 12.2638 183.309 13.7085C183.309 15.1533 184.487 16.3308 185.931 16.3308C187.376 16.3308 188.553 15.1533 188.553 13.7085C188.553 12.2638 187.376 11.0863 185.931 11.0863Z" fill="#050142"/>
<path d="M160.668 37.3781H168.456V40.0003H164.765C164.102 40.0003 163.449 39.931 162.806 39.7925L160.609 39.3274L160.668 37.3682V37.3781Z" fill="#050142"/>
</g>
<defs>
<clipPath id="clip0_548_1328">
<rect width="44.8987" height="36.5731" fill="white"/>
</clipPath>
<clipPath id="clip1_548_1328">
<rect width="126.758" height="36.7707" fill="white" transform="translate(62.1216 3.22949)"/>
</clipPath>
</defs>
</svg>
