<svg width="24" height="24" viewBox="0 0 24 24" fill="none" xmlns="http://www.w3.org/2000/svg">
<path id="Vector" d="M24 8.8889V9.77779C23.9981 11.2818 23.4521 12.7343 22.4629 13.8672C21.4736 15 20.1078 15.7367 18.6178 15.9411C19.226 16.7194 19.5561 17.6789 19.5556 18.6667V23.1111C19.5556 23.3469 19.4619 23.573 19.2952 23.7397C19.1285 23.9063 18.9024 24 18.6667 24H11.5556C11.3198 24 11.0937 23.9063 10.927 23.7397C10.7603 23.573 10.6667 23.3469 10.6667 23.1111V21.3333H8C6.82126 21.3333 5.6908 20.8651 4.8573 20.0316C4.02381 19.1981 3.55556 18.0676 3.55556 16.8889C3.55556 16.1817 3.2746 15.5034 2.77451 15.0033C2.27441 14.5032 1.59613 14.2222 0.888889 14.2222C0.653141 14.2222 0.427049 14.1286 0.26035 13.9619C0.0936505 13.7952 0 13.5691 0 13.3333C0 13.0976 0.0936505 12.8715 0.26035 12.7048C0.427049 12.5381 0.653141 12.4445 0.888889 12.4445C1.47254 12.4445 2.05048 12.5594 2.5897 12.7828C3.12893 13.0061 3.61888 13.3335 4.03159 13.7462C4.44429 14.1589 4.77167 14.6489 4.99502 15.1881C5.21837 15.7273 5.33333 16.3052 5.33333 16.8889C5.33333 17.5961 5.61428 18.2744 6.11438 18.7745C6.61448 19.2746 7.29276 19.5556 8 19.5556H10.6667V18.6667C10.6661 17.6789 10.9962 16.7194 11.6044 15.9411C10.1144 15.7367 8.74864 15 7.75936 13.8672C6.77008 12.7343 6.22409 11.2818 6.22222 9.77779V8.8889C6.23329 7.7842 6.52748 6.70081 7.07667 5.74223C6.80497 4.86578 6.71781 3.94255 6.8207 3.03074C6.92358 2.11893 7.21428 1.23833 7.67444 0.444459C7.75248 0.309301 7.86472 0.197071 7.99989 0.119053C8.13505 0.0410352 8.28838 -2.05037e-05 8.44444 1.45459e-05C9.47979 -0.00215259 10.5013 0.237863 11.4273 0.700886C12.3534 1.16391 13.1583 1.8371 13.7778 2.66668H16.4444C17.0639 1.8371 17.8688 1.16391 18.7949 0.700886C19.7209 0.237863 20.7424 -0.00215259 21.7778 1.45459e-05C21.9338 -2.05037e-05 22.0872 0.0410352 22.2223 0.119053C22.3575 0.197071 22.4697 0.309301 22.5478 0.444459C23.008 1.23831 23.2987 2.11896 23.4014 3.03081C23.5041 3.94266 23.4166 4.8659 23.1444 5.74223C23.6947 6.70043 23.9893 7.78401 24 8.8889Z" fill="#050142"/>
</svg>
