<svg width="24" height="24" viewBox="0 0 24 24" fill="none" xmlns="http://www.w3.org/2000/svg">
<path d="M12.0001 2.1875H12C10.0593 2.1875 8.16213 2.76299 6.54847 3.8412C4.93481 4.91942 3.67712 6.45192 2.93444 8.24492C2.19175 10.0379 1.99743 12.0109 2.37605 13.9143C2.75467 15.8178 3.68922 17.5662 5.06152 18.9385C6.43382 20.3108 8.18224 21.2453 10.0857 21.624C11.9891 22.0026 13.9621 21.8083 15.7551 21.0656C17.5481 20.3229 19.0806 19.0652 20.1588 17.4515C21.237 15.8379 21.8125 13.9407 21.8125 12V11.9999C21.8075 9.39901 20.7721 6.90609 18.933 5.06699C17.0939 3.22789 14.601 2.19249 12.0001 2.1875ZM10.6223 15.6875L10.621 15.6875C10.5339 15.6888 10.4475 15.6727 10.3667 15.6404C10.2858 15.6081 10.2122 15.5601 10.15 15.4991L10.1494 15.4986L7.40256 12.8736L7.4026 12.8735L7.40047 12.8717C7.33063 12.8107 7.27383 12.7363 7.23349 12.6529C7.19315 12.5694 7.17009 12.4787 7.16571 12.3861C7.16133 12.2935 7.17571 12.201 7.208 12.1141C7.24028 12.0272 7.2898 11.9478 7.35358 11.8805C7.41735 11.8133 7.49406 11.7596 7.57911 11.7228C7.66415 11.6859 7.75577 11.6667 7.84845 11.6661C7.94113 11.6656 8.03297 11.6838 8.11843 11.7196C8.2039 11.7555 8.28123 11.8083 8.34578 11.8748L8.34575 11.8748L8.34749 11.8765L10.5787 14.0046L10.6219 14.0457L10.665 14.0046L15.6515 9.25246C15.785 9.13641 15.9582 9.0763 16.1349 9.08466C16.3121 9.09305 16.4792 9.1696 16.6013 9.29833C16.7234 9.42706 16.791 9.59799 16.7899 9.77539C16.7889 9.9524 16.7196 10.1222 16.5966 10.2494L11.1041 15.4982C11.104 15.4983 11.104 15.4983 11.1039 15.4984C10.9736 15.6209 10.8011 15.6886 10.6223 15.6875Z" fill="#26E165" stroke="#26E165" stroke-width="0.125"/>
</svg>
