<svg width="24" height="24" viewBox="0 0 24 24" fill="none" xmlns="http://www.w3.org/2000/svg">
<path id="Exclude" fill-rule="evenodd" clip-rule="evenodd" d="M3 0C1.34315 0 0 1.34315 0 3V21C0 22.6569 1.34315 24 3 24H21C22.6569 24 24 22.6569 24 21V3C24 1.34315 22.6569 0 21 0H3ZM10.3478 13.2665L3.7914 4.5H8.84458L13.1428 10.2472L18.4626 4.5H19.9475L13.8063 11.1345L20.7316 20.3941H15.6784L11.0113 14.1538L5.2349 20.3941H3.75L10.3478 13.2665ZM8.2965 5.59378H5.97506L16.2262 19.3001H18.5476L8.2965 5.59378Z" fill="#050142"/>
</svg>
